<?xml version="1.0" encoding="UTF-8" standalone="no" ?>
<!DOCTYPE svg PUBLIC "-//W3C//DTD SVG 1.1//EN" "http://www.w3.org/Graphics/SVG/1.1/DTD/svg11.dtd">
<svg xmlns="http://www.w3.org/2000/svg" xmlns:xlink="http://www.w3.org/1999/xlink" version="1.1" width="1280" height="1024" viewBox="0 0 1280 1024" xml:space="preserve">
<desc>Created with Fabric.js 5.3.0</desc>
<defs>
</defs>
<g transform="matrix(1 0 0 1 640 512)" id="background-logo"  >
<rect style="stroke: none; stroke-width: 0; stroke-dasharray: none; stroke-linecap: butt; stroke-dashoffset: 0; stroke-linejoin: miter; stroke-miterlimit: 4; fill: rgb(255,255,255); fill-opacity: 0; fill-rule: nonzero; opacity: 1;"  paint-order="stroke"  x="-640" y="-512" rx="0" ry="0" width="1280" height="1024" />
</g>
<g transform="matrix(1.9211538461538462 0 0 1.9211538461538462 447.64228618937796 511.7705089591098)" id="logo-logo"  >
<g style=""  paint-order="stroke"   >
		<g transform="matrix(0.042572330775633806 0 0 -0.042572330775633806 0 2.842171e-14)"  >
<path style="stroke: none; stroke-width: 1; stroke-dasharray: none; stroke-linecap: butt; stroke-dashoffset: 0; stroke-linejoin: miter; stroke-miterlimit: 4; fill: rgb(255,255,255); fill-rule: nonzero; opacity: 1;"  paint-order="stroke"  transform=" translate(-2349.4586006874492, -1443.1783196308966)" d="M 951.023 1085.86 C 960.359 1050.6399999999999 970.547 1015.4199999999998 982.426 980.1989999999998 C 1004.49 915.7029999999999 1030.38 852.9019999999998 1060.93 793.0699999999998 C 1074.93 765.0659999999998 1089.78 737.4839999999998 1105.48 710.7499999999998 C 1107.6 710.7499999999998 1110.15 711.6019999999997 1111.84 712.0229999999998 C 1112.6999999999998 712.4449999999998 1113.55 712.4449999999998 1113.55 712.4449999999998 C 1114.3899999999999 712.8709999999999 1115.24 712.8709999999999 1115.24 712.8709999999999 C 1179.74 727.7229999999998 1249.33 744.2699999999999 1322.31 762.0939999999998 C 1322.74 762.5199999999999 1323.1599999999999 762.5199999999999 1323.59 762.5199999999999 C 1689.36 852.9019999999998 2137.0299999999997 979.7769999999998 2468 1091.7999999999997 C 2513.83 1107.4999999999998 3044.24 1289.1099999999997 3576.35 1532.6699999999996 C 3576.77 1533.0999999999997 3577.62 1533.0999999999997 3578.04 1533.5199999999995 C 3645.5099999999998 1564.9199999999996 3712.98 1597.1699999999996 3779.6 1629.4199999999996 C 4307.889999999999 1889.9599999999996 4775.08 2200.1399999999994 4688.5199999999995 2455.16 C 4610.86 2683.0299999999997 4147.07 2707.21 3309.45 2527.2999999999997 L 3311.5699999999997 2517.5399999999995 C 2936.04 2853.19 2395.02 2982.61 1885.4 2809.91 C 1239.14 2590.95 849.188 1956.16 913.258 1304.38 C 241.973 969.594 -61.4219 692.504 10.2891 480.34 C 39.9922 392.504 126.133 289.391 487.66 289.391 C 599.258 289.391 737.164 299.15200000000004 907.742 322.492 C 1045.23 341.16 1193.74 367.469 1351.17 400.56600000000003 C 1455.98 300.42600000000004 1576.49 215.55900000000003 1710.15 149.78900000000004 C 1911.71 50.4961 2128.96 0 2347.49 0 C 2503.22 0 2659.7999999999997 25.8828 2812.1299999999997 77.2305 C 3177.0499999999997 201.133 3471.9599999999996 459.547 3642.5399999999995 804.953 C 3719.7699999999995 961.953 3767.7199999999993 1128.29 3784.6999999999994 1297.6 C 3789.359999999999 1342.57 3791.9099999999994 1387.55 3792.3299999999995 1432.11 C 3795.7299999999996 1433.8 3799.1199999999994 1435.08 3800.8199999999993 1436.35 C 3799.9699999999993 1435.9299999999998 3797.4299999999994 1434.6599999999999 3792.3299999999995 1432.54 C 3726.9799999999996 1403.68 3654.4299999999994 1372.7 3577.1999999999994 1340.8799999999999 C 3525.43 708.203 2995.87 210.891 2349.61 210.891 C 1979.17 210.891 1646.5 374.258 1421.1800000000003 633.52 C 1339.7100000000003 615.273 1262.4800000000002 599.1519999999999 1188.6500000000003 585.148 C 614.109 475.246 267.434 483.734 211.848 548.656 C 216.512 597.453 360.785 784.156 951.0229999999999 1085.86 z M 4486.96 2386.85 C 4482.29 2304.11 4227.7 2096.18 3734.62 1844.1299999999999 C 3728.68 1865.35 3722.3199999999997 1886.1399999999999 3715.1 1906.9299999999998 C 3659.52 2070.2999999999997 3577.62 2217.54 3475.3599999999997 2344.8399999999997 C 4200.54 2489.1099999999997 4451.32 2425.0399999999995 4486.96 2386.85 z M 1953.29 2608.77 C 2083.98 2653.33 2216.8 2674.12 2347.49 2674.12 C 2604.21 2674.12 2852.0199999999995 2593.5 3058.24 2448.38 C 3263.62 2303.6800000000003 3427.41 2094.48 3513.97 1838.6200000000001 C 3524.16 1808.91 3533.0699999999997 1778.7900000000002 3540.7099999999996 1748.66 C 3233.49 1602.69 2852.4399999999996 1446.1100000000001 2399.6799999999994 1292.93 C 1988.9299999999994 1153.3200000000002 1581.1499999999994 1038.75 1217.0799999999995 960.6800000000001 C 1204.3499999999995 989.5350000000001 1193.3199999999995 1018.8100000000001 1183.1299999999994 1048.52 C 1030.0899999999995 1500.5 1155.6299999999994 1981.13 1466.8999999999994 2302.06 C 1467.3499999999995 2302.52 1467.7799999999995 2302.98 1468.2299999999993 2303.43 C 1488.8099999999993 2324.5899999999997 1510.1799999999994 2345.0699999999997 1532.3599999999992 2364.7799999999997 C 1651.5899999999992 2470.4399999999996 1793.3199999999993 2554.4599999999996 1953.2899999999993 2608.7699999999995" stroke-linecap="round" />
</g>
		<g transform="matrix(0.042572330775633806 0 0 -0.042572330775633806 -53.00417897419959 31.199198569930644)"  >
<path style="stroke: none; stroke-width: 1; stroke-dasharray: none; stroke-linecap: butt; stroke-dashoffset: 0; stroke-linejoin: miter; stroke-miterlimit: 4; fill: rgb(255,255,255); fill-rule: nonzero; opacity: 1;"  paint-order="stroke"  transform=" translate(-1104.420379652663, -710.326770244096)" d="M 1105.48 710.75 C 1066.02 701.84 1140.7 717.965 1105.48 710.75 L 1105.48 710.75" stroke-linecap="round" />
</g>
		<g transform="matrix(0.042572330775633806 0 0 -0.042572330775633806 -88.13693447929472 -29.636373883379008)"  >
<path style="stroke: none; stroke-width: 1; stroke-dasharray: none; stroke-linecap: butt; stroke-dashoffset: 0; stroke-linejoin: miter; stroke-miterlimit: 4; fill: rgb(255,255,255); fill-rule: nonzero; opacity: 1;"  paint-order="stroke"  transform=" translate(-279.17179999999996, -2139.32)" d="M 484.828 2139.32 C 484.828 2025.7400000000002 392.75399999999996 1933.66 279.17199999999997 1933.66 C 165.58999999999997 1933.66 73.51559999999998 2025.74 73.51559999999998 2139.32 C 73.51559999999998 2252.9 165.58999999999997 2344.98 279.17199999999997 2344.98 C 392.75399999999996 2344.98 484.828 2252.9 484.828 2139.32" stroke-linecap="round" />
</g>
</g>
</g>
<g transform="matrix(1.9211538461538462 0 0 1.9211538461538462 819.4685154705577 508.32588011295593)" id="text-logo"  >
<g style=""  paint-order="stroke"   >
		<g transform="matrix(1 0 0 1 0 0)" id="text-logo-path-0"  >
<path style="stroke: none; stroke-width: 0; stroke-dasharray: none; stroke-linecap: butt; stroke-dashoffset: 0; stroke-linejoin: miter; stroke-miterlimit: 4; fill: rgb(255,255,255); fill-rule: nonzero; opacity: 1;"  paint-order="stroke"  transform=" translate(-89.67500000000001, 17.5)" d="M 16.2 -35 L 2.2 0 L 6.4 0 L 9.85 -8.65 L 27.95 -8.65 L 31.4 0 L 35.6 0 L 21.6 -35 Z M 11.35 -12.4 L 18.9 -31.25 L 26.45 -12.4 Z M 47.05 -35 L 59.7 -16.55 L 59.7 0 L 63.7 0 L 63.7 -16.45 L 76.4 -35 L 71.6 -35 L 61.75 -20.6 L 51.85 -35 Z M 87.85 -35 L 87.85 0 L 91.85 0 L 91.85 -35 Z M 117.3 -35 L 103.3 0 L 107.5 0 L 110.95 -8.65 L 129.05 -8.65 L 132.5 0 L 136.7 0 L 122.7 -35 Z M 112.45 -12.4 L 120 -31.25 L 127.55 -12.4 Z M 148.15 -35 L 148.15 0 L 152.15 0 L 152.15 -15.65 L 173.15 -15.65 L 173.15 0 L 177.15 0 L 177.15 -35 L 173.15 -35 L 173.15 -19.4 L 152.15 -19.4 L 152.15 -35 Z" stroke-linecap="round" />
</g>
</g>
</g>
</svg>